<svg width="33" height="43" viewBox="0 0 33 43" fill="none" xmlns="http://www.w3.org/2000/svg">
<path d="M21.22 8C23.4 8 25.22 6.16 25.22 4C25.22 2.93913 24.7986 1.92172 24.0484 1.17157C23.2983 0.421427 22.2809 0 21.22 0C19 0 17.22 1.76 17.22 4C17.22 6.16 19 8 21.22 8ZM14 35.76L16 27L20.22 31V43H24.22V28L20 24L21.22 18C22.5896 19.5713 24.2801 20.8306 26.1777 21.6931C28.0752 22.5557 30.1356 23.0013 32.22 23V19C28.4 19 25.22 17 23.6 14.16L21.6 11C20.8 9.76 19.6 9 18.22 9C17.6 9 17.22 9.16 16.6 9.16L6.22 13.56V23H10.22V16.16L13.8 14.76L10.6 31L0.8 29L0 33L14 35.76Z" fill="#999999"/>
</svg>
