<svg xmlns="http://www.w3.org/2000/svg" xmlns:xlink="http://www.w3.org/1999/xlink" width="500" zoomAndPan="magnify" viewBox="0 0 375 374.999991" height="500" preserveAspectRatio="xMidYMid meet" version="1.0"><defs><g/><clipPath id="747f0fbe30"><path d="M 38.5625 37.5 L 338.5625 37.5 L 338.5625 337.5 L 38.5625 337.5 Z M 38.5625 37.5 " clip-rule="nonzero"/></clipPath><clipPath id="6d9f5160f1"><path d="M 188.5625 37.5 C 105.71875 37.5 38.5625 104.65625 38.5625 187.5 C 38.5625 270.34375 105.71875 337.5 188.5625 337.5 C 271.402344 337.5 338.5625 270.34375 338.5625 187.5 C 338.5625 104.65625 271.402344 37.5 188.5625 37.5 Z M 188.5625 37.5 " clip-rule="nonzero"/></clipPath><clipPath id="5d28fa8309"><path d="M 88.871094 87.808594 L 288.25 87.808594 L 288.25 287.191406 L 88.871094 287.191406 Z M 88.871094 87.808594 " clip-rule="nonzero"/></clipPath><clipPath id="5acb63de93"><path d="M 188.5625 87.808594 C 133.503906 87.808594 88.871094 132.441406 88.871094 187.5 C 88.871094 242.558594 133.503906 287.191406 188.5625 287.191406 C 243.617188 287.191406 288.25 242.558594 288.25 187.5 C 288.25 132.441406 243.617188 87.808594 188.5625 87.808594 Z M 188.5625 87.808594 " clip-rule="nonzero"/></clipPath><clipPath id="c767af5acc"><path d="M 88.871094 272.382812 L 288.371094 272.382812 L 288.371094 281.382812 L 88.871094 281.382812 Z M 88.871094 272.382812 " clip-rule="nonzero"/></clipPath><clipPath id="a2c4dadba7"><path d="M 88.871094 87.808594 L 288.242188 87.808594 L 288.242188 287.179688 L 88.871094 287.179688 Z M 88.871094 87.808594 " clip-rule="nonzero"/></clipPath><clipPath id="eaf2467250"><path d="M 188.554688 87.808594 C 133.5 87.808594 88.871094 132.441406 88.871094 187.496094 C 88.871094 242.550781 133.5 287.179688 188.554688 287.179688 C 243.609375 287.179688 288.242188 242.550781 288.242188 187.496094 C 288.242188 132.441406 243.609375 87.808594 188.554688 87.808594 Z M 188.554688 87.808594 " clip-rule="nonzero"/></clipPath><clipPath id="f36b576857"><path d="M 258.007812 80.769531 L 274.507812 80.769531 L 274.507812 98 L 258.007812 98 Z M 258.007812 80.769531 " clip-rule="nonzero"/></clipPath><clipPath id="58a602d8a3"><path d="M 94 81 L 283 81 L 283 272.828125 L 94 272.828125 Z M 94 81 " clip-rule="nonzero"/></clipPath><clipPath id="d16450d5ef"><path d="M 93.457031 80.828125 L 283.957031 80.828125 L 283.957031 272.828125 L 93.457031 272.828125 Z M 93.457031 80.828125 " clip-rule="nonzero"/></clipPath><clipPath id="451659b7f7"><path d="M 169.253906 299.792969 L 185.753906 299.792969 L 185.753906 317 L 169.253906 317 Z M 169.253906 299.792969 " clip-rule="nonzero"/></clipPath><clipPath id="067ab6463f"><path d="M 57.089844 178.925781 L 73.589844 178.925781 L 73.589844 196.175781 L 57.089844 196.175781 Z M 57.089844 178.925781 " clip-rule="nonzero"/></clipPath></defs><g clip-path="url(#747f0fbe30)"><g clip-path="url(#6d9f5160f1)"><path fill="#000000" d="M 38.5625 37.5 L 338.5625 37.5 L 338.5625 337.5 L 38.5625 337.5 Z M 38.5625 37.5 " fill-opacity="1" fill-rule="nonzero"/><path stroke-linecap="butt" transform="matrix(0.75, 0, 0, 0.75, 38.560853, 37.499998)" fill="none" stroke-linejoin="miter" d="M 200.002209 0.00000328333 C 89.543869 0.00000328333 0.0021962 89.541676 0.0021962 200.000016 C 0.0021962 310.458357 89.543869 400.00003 200.002209 400.00003 C 310.455342 400.00003 400.002222 310.458357 400.002222 200.000016 C 400.002222 89.541676 310.455342 0.00000328333 200.002209 0.00000328333 Z M 200.002209 0.00000328333 " stroke="#ffffff" stroke-width="24" stroke-opacity="1" stroke-miterlimit="4"/></g></g><g clip-path="url(#5d28fa8309)"><g clip-path="url(#5acb63de93)"><path fill="#a6a6a6" d="M 88.871094 87.808594 L 288.25 87.808594 L 288.25 287.191406 L 88.871094 287.191406 Z M 88.871094 87.808594 " fill-opacity="1" fill-rule="nonzero"/></g></g><g clip-path="url(#c767af5acc)"><path fill="#000000" d="M 288.242188 181.925781 C 288.242188 183.554688 288.203125 185.1875 288.121094 186.816406 C 288.042969 188.445312 287.921875 190.070312 287.761719 191.695312 C 287.601562 193.320312 287.402344 194.9375 287.164062 196.550781 C 286.921875 198.164062 286.644531 199.773438 286.328125 201.371094 C 286.007812 202.972656 285.652344 204.5625 285.253906 206.144531 C 284.859375 207.730469 284.421875 209.300781 283.949219 210.863281 C 283.476562 212.421875 282.964844 213.972656 282.414062 215.507812 C 281.863281 217.042969 281.277344 218.566406 280.652344 220.074219 C 280.03125 221.578125 279.367188 223.070312 278.671875 224.546875 C 277.972656 226.019531 277.242188 227.476562 276.472656 228.914062 C 275.703125 230.355469 274.898438 231.773438 274.058594 233.171875 C 273.222656 234.574219 272.347656 235.949219 271.441406 237.308594 C 270.535156 238.664062 269.597656 239.996094 268.625 241.308594 C 267.652344 242.617188 266.648438 243.902344 265.613281 245.164062 C 264.578125 246.425781 263.515625 247.660156 262.417969 248.871094 C 261.324219 250.078125 260.199219 251.257812 259.042969 252.414062 C 257.890625 253.566406 256.710938 254.691406 255.5 255.785156 C 254.292969 256.882812 253.058594 257.949219 251.796875 258.984375 C 250.535156 260.015625 249.25 261.019531 247.9375 261.992188 C 246.628906 262.964844 245.296875 263.902344 243.9375 264.808594 C 242.582031 265.714844 241.203125 266.589844 239.804688 267.425781 C 238.40625 268.265625 236.988281 269.070312 235.546875 269.839844 C 234.109375 270.609375 232.652344 271.339844 231.175781 272.039062 C 229.703125 272.738281 228.210938 273.398438 226.703125 274.023438 C 225.195312 274.644531 223.675781 275.234375 222.140625 275.78125 C 220.601562 276.332031 219.054688 276.84375 217.492188 277.316406 C 215.933594 277.792969 214.359375 278.226562 212.777344 278.621094 C 211.195312 279.019531 209.605469 279.375 208.003906 279.695312 C 206.402344 280.011719 204.796875 280.292969 203.183594 280.53125 C 201.570312 280.769531 199.949219 280.96875 198.328125 281.128906 C 196.703125 281.289062 195.078125 281.410156 193.449219 281.488281 C 191.816406 281.570312 190.1875 281.609375 188.554688 281.609375 C 186.925781 281.609375 185.292969 281.570312 183.664062 281.488281 C 182.035156 281.410156 180.410156 281.289062 178.785156 281.128906 C 177.160156 280.96875 175.542969 280.769531 173.929688 280.53125 C 172.316406 280.292969 170.707031 280.011719 169.109375 279.695312 C 167.507812 279.375 165.917969 279.019531 164.335938 278.621094 C 162.753906 278.226562 161.179688 277.792969 159.621094 277.316406 C 158.058594 276.84375 156.507812 276.332031 154.972656 275.78125 C 153.4375 275.234375 151.914062 274.644531 150.410156 274.023438 C 148.902344 273.398438 147.410156 272.738281 145.933594 272.039062 C 144.460938 271.339844 143.003906 270.609375 141.566406 269.839844 C 140.125 269.070312 138.707031 268.265625 137.308594 267.425781 C 135.910156 266.589844 134.53125 265.714844 133.175781 264.808594 C 131.816406 263.902344 130.484375 262.964844 129.175781 261.992188 C 127.863281 261.019531 126.578125 260.015625 125.316406 258.984375 C 124.054688 257.949219 122.820312 256.882812 121.613281 255.785156 C 120.402344 254.691406 119.222656 253.566406 118.066406 252.414062 C 116.914062 251.257812 115.789062 250.078125 114.695312 248.871094 C 113.597656 247.660156 112.535156 246.425781 111.5 245.164062 C 110.464844 243.902344 109.460938 242.617188 108.488281 241.308594 C 107.515625 239.996094 106.578125 238.664062 105.671875 237.308594 C 104.765625 235.949219 103.890625 234.574219 103.054688 233.171875 C 102.214844 231.773438 101.410156 230.355469 100.640625 228.914062 C 99.871094 227.476562 99.140625 226.019531 98.441406 224.546875 C 97.746094 223.070312 97.082031 221.578125 96.460938 220.074219 C 95.835938 218.566406 95.246094 217.042969 94.699219 215.507812 C 94.148438 213.972656 93.636719 212.421875 93.164062 210.863281 C 92.691406 209.300781 92.253906 207.730469 91.859375 206.144531 C 91.460938 204.5625 91.105469 202.972656 90.785156 201.371094 C 90.46875 199.773438 90.1875 198.164062 89.949219 196.550781 C 89.710938 194.9375 89.511719 193.320312 89.351562 191.695312 C 89.191406 190.070312 89.070312 188.445312 88.992188 186.816406 C 88.910156 185.1875 88.871094 183.554688 88.871094 181.925781 C 88.871094 180.292969 88.910156 178.664062 88.992188 177.03125 C 89.070312 175.402344 89.191406 173.777344 89.351562 172.152344 C 89.511719 170.53125 89.710938 168.910156 89.949219 167.296875 C 90.1875 165.683594 90.46875 164.078125 90.785156 162.476562 C 91.105469 160.875 91.460938 159.285156 91.859375 157.703125 C 92.253906 156.121094 92.691406 154.546875 93.164062 152.988281 C 93.636719 151.425781 94.148438 149.878906 94.699219 148.339844 C 95.246094 146.804688 95.835938 145.285156 96.460938 143.777344 C 97.082031 142.269531 97.746094 140.777344 98.441406 139.304688 C 99.140625 137.828125 99.871094 136.371094 100.640625 134.933594 C 101.410156 133.496094 102.214844 132.074219 103.054688 130.675781 C 103.890625 129.277344 104.765625 127.898438 105.671875 126.542969 C 106.578125 125.1875 107.515625 123.851562 108.488281 122.542969 C 109.460938 121.230469 110.464844 119.945312 111.5 118.683594 C 112.535156 117.421875 113.597656 116.1875 114.695312 114.980469 C 115.789062 113.769531 116.914062 112.589844 118.066406 111.4375 C 119.222656 110.28125 120.402344 109.15625 121.613281 108.0625 C 122.820312 106.964844 124.054688 105.902344 125.316406 104.867188 C 126.578125 103.832031 127.863281 102.828125 129.175781 101.855469 C 130.484375 100.882812 131.816406 99.945312 133.175781 99.039062 C 134.53125 98.132812 135.910156 97.261719 137.308594 96.421875 C 138.707031 95.582031 140.125 94.777344 141.566406 94.007812 C 143.003906 93.242188 144.460938 92.507812 145.933594 91.808594 C 147.410156 91.113281 148.902344 90.453125 150.410156 89.828125 C 151.914062 89.203125 153.4375 88.617188 154.972656 88.066406 C 156.507812 87.515625 158.058594 87.003906 159.621094 86.53125 C 161.179688 86.058594 162.753906 85.621094 164.335938 85.226562 C 165.917969 84.828125 167.507812 84.472656 169.109375 84.15625 C 170.707031 83.835938 172.316406 83.558594 173.929688 83.316406 C 175.542969 83.078125 177.160156 82.878906 178.785156 82.71875 C 180.410156 82.558594 182.035156 82.4375 183.664062 82.359375 C 185.292969 82.277344 186.925781 82.238281 188.554688 82.238281 C 190.1875 82.238281 191.816406 82.277344 193.449219 82.359375 C 195.078125 82.4375 196.703125 82.558594 198.328125 82.71875 C 199.949219 82.878906 201.570312 83.078125 203.183594 83.316406 C 204.796875 83.558594 206.402344 83.835938 208.003906 84.15625 C 209.605469 84.472656 211.195312 84.828125 212.777344 85.226562 C 214.359375 85.621094 215.933594 86.058594 217.492188 86.53125 C 219.054688 87.003906 220.601562 87.515625 222.140625 88.066406 C 223.675781 88.617188 225.195312 89.203125 226.703125 89.828125 C 228.210938 90.453125 229.703125 91.113281 231.175781 91.808594 C 232.652344 92.507812 234.109375 93.242188 235.546875 94.007812 C 236.988281 94.777344 238.40625 95.582031 239.804688 96.421875 C 241.203125 97.261719 242.582031 98.132812 243.9375 99.039062 C 245.296875 99.945312 246.628906 100.882812 247.9375 101.855469 C 249.25 102.828125 250.535156 103.832031 251.796875 104.867188 C 253.058594 105.902344 254.292969 106.964844 255.5 108.0625 C 256.710938 109.15625 257.890625 110.28125 259.042969 111.4375 C 260.199219 112.589844 261.324219 113.769531 262.417969 114.980469 C 263.515625 116.1875 264.578125 117.421875 265.613281 118.683594 C 266.648438 119.945312 267.652344 121.230469 268.625 122.542969 C 269.597656 123.851562 270.535156 125.1875 271.441406 126.542969 C 272.347656 127.898438 273.222656 129.277344 274.058594 130.675781 C 274.898438 132.074219 275.703125 133.496094 276.472656 134.933594 C 277.242188 136.371094 277.972656 137.828125 278.671875 139.304688 C 279.367188 140.777344 280.03125 142.269531 280.652344 143.777344 C 281.277344 145.285156 281.863281 146.804688 282.414062 148.339844 C 282.964844 149.878906 283.476562 151.425781 283.949219 152.988281 C 284.421875 154.546875 284.859375 156.121094 285.253906 157.703125 C 285.652344 159.285156 286.007812 160.875 286.328125 162.476562 C 286.644531 164.078125 286.921875 165.683594 287.164062 167.296875 C 287.402344 168.910156 287.601562 170.53125 287.761719 172.152344 C 287.921875 173.777344 288.042969 175.402344 288.121094 177.03125 C 288.203125 178.664062 288.242188 180.292969 288.242188 181.925781 Z M 288.242188 181.925781 " fill-opacity="1" fill-rule="nonzero"/></g><g clip-path="url(#a2c4dadba7)"><g clip-path="url(#eaf2467250)"><path stroke-linecap="butt" transform="matrix(0.75, 0, 0, 0.75, 88.870919, 87.810069)" fill="none" stroke-linejoin="miter" d="M 132.911701 -0.00196651 C 59.505446 -0.00196651 0.000233448 59.508454 0.000233448 132.914709 C 0.000233448 206.320964 59.505446 265.826176 132.911701 265.826176 C 206.317955 265.826176 265.828376 206.320964 265.828376 132.914709 C 265.828376 59.508454 206.317955 -0.00196651 132.911701 -0.00196651 Z M 132.911701 -0.00196651 " stroke="#ffffff" stroke-width="22" stroke-opacity="1" stroke-miterlimit="4"/></g></g><g clip-path="url(#f36b576857)"><path fill="#a6a6a6" d="M 266.375 80.769531 L 267.898438 82.675781 L 270.09375 81.617188 L 270.636719 83.996094 L 273.078125 83.996094 L 272.535156 86.375 L 274.734375 87.433594 L 273.210938 89.339844 L 274.734375 91.246094 L 272.535156 92.308594 L 273.078125 94.6875 L 270.636719 94.6875 L 270.09375 97.0625 L 267.898438 96.007812 L 266.375 97.914062 L 264.855469 96.007812 L 262.65625 97.0625 L 262.113281 94.6875 L 259.675781 94.6875 L 260.214844 92.308594 L 258.019531 91.246094 L 259.539062 89.339844 L 258.019531 87.433594 L 260.214844 86.375 L 259.675781 83.996094 L 262.113281 83.996094 L 262.65625 81.617188 L 264.855469 82.675781 Z M 266.375 80.769531 " fill-opacity="1" fill-rule="nonzero"/></g><g clip-path="url(#58a602d8a3)"><path fill="#000000" d="M 174.613281 118.460938 C 176.824219 120.796875 179.03125 123.128906 181.242188 125.464844 C 181.53125 125.757812 181.824219 126.089844 181.90625 126.507812 C 181.992188 126.882812 181.867188 127.257812 181.867188 127.632812 C 181.867188 128.507812 182.535156 129.171875 183.117188 129.796875 C 183.867188 130.550781 184.617188 131.339844 185.324219 132.089844 C 185.785156 132.589844 186.285156 133.089844 186.492188 133.757812 C 186.742188 134.632812 186.410156 135.589844 186.535156 136.507812 C 186.617188 137.132812 186.910156 137.71875 187.160156 138.300781 C 188.742188 141.632812 189.910156 145.175781 190.703125 148.804688 C 190.867188 149.679688 191.035156 150.636719 190.578125 151.386719 C 190.160156 152.054688 189.367188 152.386719 188.742188 152.84375 C 188.117188 153.304688 187.617188 154.222656 188.078125 154.886719 C 188.285156 155.179688 188.617188 155.347656 188.953125 155.472656 C 192.367188 156.929688 196.121094 157.386719 199.789062 157.886719 C 200.453125 157.972656 201.121094 158.054688 201.746094 157.972656 C 202.914062 157.847656 203.996094 157.179688 204.621094 156.222656 C 207.332031 152.304688 211.164062 149.304688 215.832031 148.34375 C 221.667969 147.136719 227.875 149.304688 233.667969 147.929688 C 236.128906 144.886719 239.460938 142.300781 243.128906 140.96875 C 245.671875 140.050781 248.546875 139.59375 251.132812 140.507812 C 251.757812 140.71875 252.382812 141.007812 253.050781 141.050781 C 253.839844 141.09375 254.589844 140.757812 255.300781 140.425781 C 256.089844 140.050781 256.925781 139.675781 257.714844 139.300781 C 256.675781 134.257812 255.589844 128.796875 255.757812 123.671875 C 255.800781 122.378906 255.925781 121.046875 255.882812 119.753906 C 255.839844 119.046875 255.757812 118.335938 255.675781 117.585938 C 255.257812 114.546875 254.464844 111.585938 253.382812 108.710938 C 252.171875 105.542969 250.632812 102.542969 249.046875 99.542969 C 248.671875 98.832031 247.464844 98.707031 246.671875 98.75 C 245.878906 98.792969 245.128906 99 244.339844 99.082031 C 241.296875 99.332031 238.503906 97.25 235.421875 97 C 234.042969 96.875 232.667969 97.125 231.335938 97.375 C 231.042969 97.417969 230.710938 97.5 230.460938 97.375 C 230.167969 97.25 229.960938 96.957031 229.792969 96.667969 C 229.460938 96.082031 229.128906 95.457031 228.875 94.832031 C 228.710938 94.414062 228.585938 93.914062 228.835938 93.582031 C 228.960938 93.414062 229.167969 93.289062 229.292969 93.125 C 229.628906 92.664062 229.335938 92.039062 229.417969 91.5 C 229.460938 91.164062 229.667969 90.875 229.878906 90.582031 C 230.960938 88.957031 231.835938 87.164062 232.417969 85.289062 C 232.667969 84.496094 232.917969 83.664062 233.460938 83.039062 C 234.292969 82.078125 235.710938 81.828125 236.960938 81.828125 C 239.585938 81.871094 242.214844 82.871094 244.214844 84.582031 C 244.753906 85.039062 245.253906 85.539062 245.796875 86.039062 C 246.253906 86.457031 246.757812 86.789062 247.214844 87.164062 C 248.382812 88.039062 249.546875 88.914062 250.671875 89.789062 C 251.546875 90.457031 252.425781 91.125 253.339844 91.789062 C 254.464844 92.625 255.589844 93.5 256.800781 94.164062 C 258.96875 95.375 259.425781 98.042969 260.675781 100.167969 C 261.425781 101.460938 262.382812 102.375 263.257812 103.625 C 264.886719 105.917969 266.550781 108.210938 268.175781 110.503906 C 269.261719 112.003906 270.34375 113.546875 271.386719 115.085938 C 276.929688 123.464844 280.722656 133.007812 282.472656 142.886719 C 282.679688 144.09375 282.097656 145.261719 281.386719 146.261719 C 280.722656 147.261719 279.761719 148.09375 278.886719 148.929688 C 274.34375 153.179688 270.304688 157.972656 265.761719 162.265625 C 261.21875 166.558594 256.007812 170.347656 250.046875 172.058594 C 244.671875 173.601562 238.671875 173.476562 234.085938 176.601562 C 228.042969 180.726562 230.128906 190.5625 227.375 197.355469 C 226.167969 200.355469 224.5 203.148438 223.542969 206.234375 C 221.667969 212.277344 220.375 218.527344 217.75 224.277344 C 216.789062 226.402344 215.664062 228.445312 215.039062 230.695312 C 213.832031 235.113281 214.582031 239.78125 215.707031 244.242188 C 216.832031 248.699219 218.25 253.078125 218.375 257.660156 C 218.5 262.996094 221.292969 267.953125 222.75 273.082031 L 153.527344 273.082031 C 154.734375 269.371094 156.027344 266.078125 157.609375 262.535156 C 158.070312 261.496094 158.570312 260.453125 158.777344 259.328125 C 158.988281 258.285156 158.988281 257.203125 159.027344 256.117188 C 159.402344 250.492188 162.238281 245.117188 161.652344 239.53125 C 161.445312 237.488281 161.777344 235.449219 161.113281 233.488281 C 160.445312 231.53125 159.402344 229.738281 158.359375 227.902344 C 155.777344 223.402344 153.152344 218.902344 149.859375 214.941406 C 148.984375 216.109375 147.941406 217.277344 147.066406 218.484375 C 146.191406 219.652344 145.273438 220.859375 144.359375 221.984375 C 140.566406 226.570312 135.898438 230.488281 130.5625 233.070312 C 127.480469 234.570312 124.1875 235.613281 121.269531 237.40625 C 119.894531 238.238281 118.5625 239.28125 117.058594 239.90625 C 115.351562 240.613281 113.519531 240.824219 111.640625 240.863281 C 108.765625 240.949219 105.722656 240.65625 103.308594 239.074219 C 102.347656 238.449219 101.933594 237.324219 101.433594 236.28125 C 100.765625 234.945312 100.097656 233.613281 99.429688 232.28125 C 98.804688 231.03125 98.179688 229.78125 97.679688 228.527344 C 96.140625 224.738281 95.554688 220.609375 95.179688 216.527344 C 94.847656 213.234375 94.636719 209.898438 94.554688 206.566406 C 94.429688 202.355469 96.222656 198.0625 96.554688 193.855469 C 96.847656 190.480469 96.304688 186.976562 97.304688 183.726562 C 98.140625 181.144531 99.097656 178.433594 100.472656 176.101562 C 103.347656 171.226562 106.222656 166.347656 109.058594 161.472656 C 109.265625 161.140625 109.476562 160.765625 109.765625 160.515625 C 110.433594 159.972656 111.390625 159.972656 112.183594 160.222656 C 112.976562 160.472656 113.683594 160.972656 114.433594 161.390625 C 116.308594 162.390625 118.476562 162.722656 120.269531 163.847656 C 120.5625 164.015625 120.851562 164.222656 121.019531 164.515625 C 121.1875 164.847656 121.1875 165.222656 121.3125 165.558594 C 121.519531 166.308594 122.101562 166.890625 122.5625 167.515625 C 123.019531 168.140625 123.351562 168.972656 122.976562 169.683594 C 122.8125 169.972656 122.601562 170.183594 122.351562 170.390625 C 121.226562 171.308594 119.9375 172.058594 119.101562 173.183594 C 118.644531 173.808594 118.3125 174.515625 117.894531 175.140625 C 115.601562 178.394531 110.640625 179.101562 108.765625 182.601562 C 108.058594 183.9375 107.890625 185.476562 107.890625 187.019531 C 107.851562 190.105469 108.265625 193.1875 109.183594 196.148438 C 109.851562 198.355469 111.308594 200.105469 112.519531 202.066406 C 113.101562 203.023438 113.683594 203.980469 114.394531 204.855469 C 114.933594 205.523438 115.519531 206.191406 115.976562 206.898438 C 116.558594 207.816406 116.976562 208.816406 117.351562 209.859375 C 118.058594 208.484375 118.4375 206.941406 118.9375 205.441406 C 119.644531 203.273438 121.0625 201.355469 122.769531 199.8125 C 124.4375 198.273438 126.394531 197.023438 128.3125 195.773438 C 128.230469 192.730469 129.6875 189.894531 131.023438 187.1875 C 131.855469 185.476562 132.8125 183.8125 133.9375 182.308594 C 138.816406 175.683594 147.566406 172.101562 155.695312 173.433594 C 156.359375 173.558594 157.152344 173.226562 157.609375 172.726562 C 159.445312 170.933594 161.277344 169.097656 163.113281 167.308594 C 163.695312 166.722656 164.320312 166.097656 164.738281 165.390625 C 165.65625 163.847656 165.65625 161.890625 165.15625 160.179688 C 164.652344 158.472656 163.695312 156.929688 162.695312 155.429688 C 162.070312 154.429688 161.402344 153.429688 160.445312 152.71875 C 159.820312 152.261719 159.113281 151.929688 158.445312 151.511719 C 155.859375 149.96875 153.859375 147.425781 151.027344 146.386719 C 147.148438 145.011719 144.191406 141.21875 142.773438 137.382812 C 142.191406 135.839844 141.984375 134.214844 142.109375 132.589844 C 142.191406 131.464844 142.484375 130.339844 142.734375 129.257812 C 143.109375 127.714844 143.484375 126.171875 143.859375 124.589844 C 143.984375 124.003906 144.148438 123.378906 144.398438 122.839844 C 144.941406 121.714844 145.941406 120.878906 146.941406 120.128906 C 149.109375 118.421875 151.277344 116.710938 153.695312 115.378906 C 156.109375 114.046875 158.777344 113.085938 161.527344 112.960938 C 162.863281 112.878906 164.238281 113.046875 165.570312 113.210938 C 167.28125 113.460938 168.988281 113.796875 170.53125 114.503906 C 172.113281 115.296875 173.40625 117.210938 174.613281 118.460938 Z M 174.613281 118.460938 " fill-opacity="1" fill-rule="nonzero"/></g><g clip-path="url(#d16450d5ef)"><path fill="#ffffff" d="M 154.527344 273.121094 L 152.527344 273.121094 C 153.695312 269.578125 154.984375 265.871094 156.652344 262.160156 L 156.734375 261.953125 C 157.152344 260.996094 157.570312 260.078125 157.777344 259.160156 C 157.902344 258.492188 157.945312 257.785156 157.984375 256.992188 C 157.984375 256.703125 158.027344 256.367188 158.027344 256.078125 C 158.195312 253.617188 158.820312 251.199219 159.402344 248.910156 C 160.195312 245.742188 160.988281 242.742188 160.652344 239.699219 C 160.570312 238.90625 160.570312 238.15625 160.570312 237.449219 C 160.570312 236.199219 160.527344 234.988281 160.152344 233.863281 C 159.488281 231.988281 158.484375 230.195312 157.484375 228.488281 C 155.320312 224.695312 152.859375 220.445312 149.902344 216.652344 C 149.691406 216.902344 149.527344 217.152344 149.316406 217.402344 C 148.859375 217.984375 148.359375 218.570312 147.941406 219.152344 L 147.902344 219.195312 C 147.023438 220.359375 146.109375 221.527344 145.191406 222.695312 C 141.148438 227.613281 136.230469 231.53125 131.023438 234.03125 C 129.855469 234.613281 128.644531 235.113281 127.480469 235.613281 C 125.480469 236.449219 123.601562 237.238281 121.8125 238.324219 C 121.394531 238.574219 120.976562 238.824219 120.601562 239.113281 C 119.644531 239.738281 118.644531 240.40625 117.476562 240.90625 C 115.519531 241.742188 113.351562 241.90625 111.683594 241.949219 C 109.226562 242.03125 105.640625 241.90625 102.722656 239.988281 C 101.683594 239.324219 101.183594 238.238281 100.765625 237.324219 C 100.683594 237.15625 100.597656 236.988281 100.515625 236.824219 L 98.472656 232.78125 C 97.847656 231.570312 97.222656 230.28125 96.679688 228.988281 C 95.097656 224.988281 94.511719 220.734375 94.097656 216.691406 C 93.761719 213.359375 93.554688 209.984375 93.472656 206.648438 C 93.386719 204.105469 93.972656 201.605469 94.511719 199.148438 C 94.929688 197.3125 95.304688 195.5625 95.472656 193.8125 C 95.554688 192.6875 95.554688 191.5625 95.554688 190.4375 C 95.554688 188.144531 95.554688 185.769531 96.265625 183.476562 C 97.015625 181.183594 98.015625 178.183594 99.515625 175.640625 C 102.390625 170.765625 105.222656 165.890625 108.101562 161.015625 C 108.308594 160.640625 108.601562 160.140625 109.058594 159.765625 C 109.933594 159.054688 111.183594 158.886719 112.476562 159.304688 C 113.144531 159.511719 113.726562 159.847656 114.269531 160.179688 C 114.476562 160.304688 114.683594 160.429688 114.933594 160.554688 C 115.726562 160.972656 116.558594 161.265625 117.476562 161.597656 C 118.601562 161.972656 119.769531 162.390625 120.851562 163.054688 C 121.226562 163.265625 121.6875 163.597656 121.976562 164.140625 C 122.1875 164.515625 122.226562 164.847656 122.269531 165.140625 C 122.269531 165.222656 122.3125 165.347656 122.3125 165.429688 C 122.394531 165.765625 122.6875 166.140625 123.019531 166.515625 C 123.144531 166.683594 123.269531 166.847656 123.394531 167.015625 C 124.230469 168.140625 124.394531 169.347656 123.894531 170.265625 C 123.644531 170.722656 123.3125 171.015625 122.976562 171.265625 C 122.6875 171.515625 122.351562 171.726562 122.019531 171.976562 C 121.1875 172.558594 120.4375 173.140625 119.894531 173.890625 C 119.6875 174.183594 119.476562 174.515625 119.3125 174.851562 C 119.144531 175.183594 118.9375 175.476562 118.726562 175.808594 C 117.519531 177.519531 115.726562 178.558594 113.976562 179.601562 C 112.183594 180.644531 110.515625 181.601562 109.683594 183.1875 C 109.058594 184.394531 108.933594 185.851562 108.933594 187.101562 C 108.890625 190.105469 109.308594 193.0625 110.183594 195.9375 C 110.640625 197.398438 111.476562 198.648438 112.351562 199.980469 C 112.726562 200.523438 113.058594 201.066406 113.433594 201.648438 C 114.058594 202.691406 114.601562 203.523438 115.226562 204.355469 C 115.394531 204.566406 115.558594 204.773438 115.726562 204.980469 C 116.101562 205.441406 116.519531 205.941406 116.851562 206.484375 C 117.019531 206.734375 117.183594 206.984375 117.308594 207.273438 C 117.394531 206.984375 117.519531 206.648438 117.601562 206.359375 C 117.726562 205.980469 117.808594 205.648438 117.933594 205.273438 C 118.644531 203.105469 120.019531 201.066406 122.0625 199.1875 C 123.601562 197.773438 125.355469 196.5625 127.269531 195.355469 C 127.355469 192.355469 128.730469 189.644531 130.023438 187.019531 L 130.105469 186.851562 C 131.148438 184.8125 132.105469 183.1875 133.105469 181.808594 C 138.230469 174.890625 147.359375 171.140625 155.859375 172.515625 C 156.152344 172.558594 156.609375 172.390625 156.902344 172.101562 L 162.402344 166.683594 C 162.945312 166.140625 163.488281 165.597656 163.863281 164.972656 C 164.527344 163.847656 164.652344 162.222656 164.152344 160.597656 C 163.695312 159.054688 162.820312 157.679688 161.820312 156.136719 C 161.277344 155.261719 160.652344 154.304688 159.820312 153.679688 C 159.445312 153.386719 159.027344 153.179688 158.609375 152.929688 C 158.402344 152.804688 158.152344 152.679688 157.945312 152.554688 C 156.820312 151.886719 155.859375 151.054688 154.902344 150.261719 C 153.527344 149.136719 152.277344 148.054688 150.734375 147.511719 C 146.234375 145.925781 143.191406 141.507812 141.859375 137.882812 C 141.230469 136.214844 140.980469 134.382812 141.148438 132.632812 C 141.230469 131.425781 141.523438 130.257812 141.816406 129.132812 L 142.941406 124.464844 C 143.109375 123.796875 143.273438 123.171875 143.566406 122.503906 C 144.234375 121.128906 145.441406 120.171875 146.398438 119.421875 C 148.652344 117.628906 150.859375 115.921875 153.277344 114.585938 C 156.109375 113.042969 158.902344 112.167969 161.527344 112.042969 C 163.027344 111.960938 164.527344 112.128906 165.738281 112.292969 C 167.363281 112.542969 169.28125 112.878906 170.988281 113.671875 C 172.324219 114.296875 173.449219 115.585938 174.40625 116.753906 C 174.738281 117.128906 175.03125 117.503906 175.324219 117.796875 L 181.949219 124.839844 C 182.242188 125.171875 182.742188 125.671875 182.867188 126.382812 C 182.949219 126.757812 182.910156 127.132812 182.867188 127.382812 C 182.867188 127.507812 182.824219 127.632812 182.824219 127.671875 C 182.824219 128.132812 183.285156 128.632812 183.785156 129.132812 L 185.992188 131.425781 C 186.492188 131.964844 187.117188 132.589844 187.410156 133.507812 C 187.617188 134.214844 187.535156 134.839844 187.492188 135.425781 C 187.449219 135.757812 187.449219 136.132812 187.449219 136.382812 C 187.492188 136.800781 187.699219 137.257812 187.949219 137.757812 L 187.992188 137.84375 C 189.617188 141.257812 190.828125 144.886719 191.617188 148.554688 C 191.867188 149.679688 191.992188 150.84375 191.328125 151.886719 C 190.910156 152.554688 190.285156 152.929688 189.785156 153.261719 C 189.578125 153.386719 189.410156 153.511719 189.242188 153.636719 C 188.953125 153.84375 188.785156 154.179688 188.785156 154.261719 C 188.828125 154.261719 188.953125 154.347656 189.160156 154.429688 C 192.492188 155.804688 196.160156 156.304688 199.746094 156.761719 C 200.371094 156.847656 200.914062 156.929688 201.453125 156.847656 C 202.328125 156.761719 203.121094 156.261719 203.621094 155.554688 C 206.664062 151.136719 210.871094 148.179688 215.5 147.21875 C 218.5 146.59375 221.542969 146.84375 224.5 147.050781 C 227.460938 147.261719 230.253906 147.46875 232.960938 146.886719 C 235.671875 143.636719 239.085938 141.175781 242.628906 139.882812 C 245.839844 138.71875 248.839844 138.550781 251.296875 139.425781 C 251.464844 139.46875 251.589844 139.550781 251.757812 139.59375 C 252.171875 139.757812 252.589844 139.882812 252.925781 139.925781 C 253.464844 139.96875 254.132812 139.675781 254.675781 139.382812 L 256.339844 138.59375 C 255.214844 133.214844 254.339844 128.296875 254.507812 123.503906 C 254.507812 123.089844 254.550781 122.714844 254.550781 122.296875 C 254.589844 121.378906 254.632812 120.503906 254.589844 119.671875 C 254.550781 119.089844 254.507812 118.460938 254.382812 117.628906 C 253.964844 114.671875 253.214844 111.753906 252.171875 108.960938 C 251.007812 105.835938 249.421875 102.835938 247.921875 99.917969 C 247.839844 99.832031 247.339844 99.667969 246.546875 99.707031 C 246.214844 99.707031 245.839844 99.792969 245.421875 99.875 C 245.046875 99.957031 244.671875 100 244.253906 100.042969 C 242.296875 100.207031 240.546875 99.582031 238.835938 98.957031 C 237.585938 98.5 236.378906 98.082031 235.171875 97.957031 C 233.960938 97.875 232.753906 98.082031 231.460938 98.292969 L 231.378906 98.292969 C 231.042969 98.332031 230.503906 98.457031 229.917969 98.207031 C 229.335938 97.957031 228.960938 97.5 228.710938 97.042969 C 228.335938 96.417969 228 95.75 227.75 95.082031 C 227.625 94.75 227.210938 93.707031 227.835938 92.832031 C 227.960938 92.664062 228.125 92.5 228.25 92.414062 C 228.25 92.332031 228.25 92.207031 228.210938 92.125 C 228.167969 91.875 228.167969 91.539062 228.210938 91.207031 C 228.292969 90.664062 228.585938 90.25 228.792969 89.914062 C 229.835938 88.332031 230.667969 86.621094 231.253906 84.832031 L 231.335938 84.621094 C 231.585938 83.828125 231.878906 82.996094 232.503906 82.246094 C 233.417969 81.203125 234.921875 80.664062 236.835938 80.703125 C 239.753906 80.746094 242.546875 81.828125 244.753906 83.703125 C 245.046875 83.953125 245.339844 84.246094 245.628906 84.496094 C 245.878906 84.707031 246.089844 84.957031 246.339844 85.164062 C 246.757812 85.539062 247.257812 85.914062 247.714844 86.246094 C 248.882812 87.121094 250.046875 87.996094 251.171875 88.871094 L 253.839844 90.875 C 254.925781 91.664062 256.007812 92.5 257.175781 93.164062 C 259.007812 94.164062 259.757812 95.917969 260.507812 97.625 C 260.800781 98.332031 261.09375 98.957031 261.46875 99.582031 C 261.882812 100.292969 262.382812 100.917969 262.925781 101.542969 C 263.300781 101.960938 263.632812 102.417969 264.011719 102.917969 L 269.011719 109.878906 C 270.054688 111.335938 271.136719 112.878906 272.179688 114.421875 C 277.761719 122.878906 281.679688 132.632812 283.429688 142.636719 C 283.722656 144.261719 282.847656 145.800781 282.179688 146.761719 C 281.472656 147.800781 280.597656 148.636719 279.722656 149.429688 L 279.511719 149.636719 C 277.222656 151.761719 275.011719 154.097656 272.84375 156.386719 C 270.761719 158.597656 268.636719 160.847656 266.386719 162.972656 C 260.800781 168.222656 255.550781 171.476562 250.214844 173.015625 C 248.382812 173.558594 246.464844 173.890625 244.589844 174.226562 C 240.921875 174.851562 237.421875 175.476562 234.542969 177.433594 C 231.128906 179.769531 230.585938 184.3125 230.003906 189.105469 C 229.667969 192.019531 229.292969 195.0625 228.25 197.6875 C 227.75 198.898438 227.210938 200.105469 226.667969 201.273438 C 225.835938 203.066406 225.042969 204.730469 224.460938 206.523438 C 223.917969 208.316406 223.375 210.191406 222.875 211.984375 C 221.707031 216.234375 220.5 220.609375 218.625 224.695312 C 218.417969 225.152344 218.167969 225.652344 217.957031 226.113281 C 217.164062 227.738281 216.414062 229.320312 215.957031 230.945312 C 214.75 235.28125 215.625 239.949219 216.625 243.949219 C 216.832031 244.824219 217.082031 245.699219 217.292969 246.574219 C 218.25 250.117188 219.207031 253.785156 219.292969 257.578125 C 219.375 260.953125 220.582031 264.203125 221.875 267.621094 C 222.5 269.289062 223.167969 271.289062 223.625 273.039062 L 221.625 273.039062 C 221.167969 271.371094 220.542969 269.996094 219.917969 268.371094 C 218.625 264.953125 217.292969 261.410156 217.207031 257.660156 C 217.125 254.117188 216.164062 250.574219 215.25 247.15625 C 215 246.28125 214.789062 245.367188 214.539062 244.492188 C 213.457031 240.199219 212.539062 235.195312 213.875 230.40625 C 214.375 228.570312 215.207031 226.863281 216 225.238281 C 216.207031 224.777344 216.457031 224.320312 216.664062 223.863281 C 218.457031 219.902344 219.667969 215.609375 220.832031 211.441406 C 221.332031 209.609375 221.875 207.734375 222.417969 205.898438 C 223 203.980469 223.875 202.148438 224.710938 200.355469 C 225.25 199.230469 225.792969 198.0625 226.25 196.898438 C 227.210938 194.519531 227.542969 191.605469 227.875 188.8125 C 228.5 183.769531 229.128906 178.519531 233.292969 175.640625 C 236.546875 173.433594 240.421875 172.765625 244.171875 172.101562 C 245.964844 171.765625 247.839844 171.476562 249.589844 170.972656 C 254.632812 169.515625 259.507812 166.515625 264.886719 161.429688 C 267.09375 159.347656 269.21875 157.097656 271.261719 154.929688 C 273.429688 152.636719 275.636719 150.304688 278.011719 148.09375 L 278.222656 147.886719 C 279.011719 147.136719 279.804688 146.425781 280.347656 145.59375 C 281.097656 144.46875 281.390625 143.675781 281.265625 142.96875 C 279.554688 133.257812 275.761719 123.753906 270.34375 115.546875 C 269.34375 114.046875 268.261719 112.542969 267.21875 111.085938 L 262.21875 104.125 C 261.882812 103.667969 261.550781 103.25 261.21875 102.835938 C 260.675781 102.167969 260.09375 101.460938 259.59375 100.582031 C 259.175781 99.875 258.84375 99.125 258.550781 98.417969 C 257.882812 96.917969 257.339844 95.625 256.132812 94.957031 C 254.839844 94.25 253.675781 93.375 252.550781 92.5 L 249.882812 90.5 C 248.714844 89.621094 247.546875 88.746094 246.421875 87.871094 C 245.921875 87.496094 245.421875 87.121094 244.921875 86.707031 C 244.671875 86.496094 244.421875 86.246094 244.171875 85.996094 C 243.921875 85.746094 243.628906 85.496094 243.378906 85.246094 C 241.546875 83.703125 239.171875 82.789062 236.753906 82.746094 C 235.878906 82.746094 234.671875 82.871094 234.042969 83.578125 C 233.710938 83.996094 233.503906 84.582031 233.292969 85.207031 L 233.210938 85.457031 C 232.585938 87.414062 231.667969 89.289062 230.542969 91 C 230.417969 91.207031 230.292969 91.414062 230.253906 91.5 C 230.253906 91.582031 230.253906 91.75 230.292969 91.875 C 230.335938 92.332031 230.417969 93 229.960938 93.582031 C 229.835938 93.75 229.667969 93.875 229.585938 93.957031 C 229.585938 94 229.628906 94.125 229.667969 94.25 C 229.917969 94.832031 230.167969 95.375 230.503906 95.917969 C 230.585938 96.082031 230.667969 96.167969 230.667969 96.167969 C 230.753906 96.167969 230.917969 96.125 230.960938 96.125 L 231.042969 96.125 C 232.417969 95.875 233.835938 95.625 235.296875 95.75 C 236.796875 95.875 238.171875 96.375 239.503906 96.875 C 241.089844 97.457031 242.546875 98 244.046875 97.832031 C 244.378906 97.792969 244.671875 97.75 245.046875 97.667969 C 245.464844 97.582031 245.921875 97.5 246.421875 97.457031 C 247.214844 97.417969 249.089844 97.457031 249.757812 98.792969 C 251.296875 101.75 252.925781 104.835938 254.132812 108.085938 C 255.214844 111.003906 256.007812 114.085938 256.464844 117.171875 C 256.589844 118.085938 256.675781 118.753906 256.675781 119.421875 C 256.714844 120.378906 256.675781 121.339844 256.632812 122.253906 C 256.632812 122.628906 256.589844 123.046875 256.589844 123.421875 C 256.425781 128.214844 257.382812 133.257812 258.550781 138.84375 L 258.71875 139.632812 L 255.550781 141.09375 C 254.800781 141.425781 253.882812 141.882812 252.800781 141.800781 C 252.132812 141.757812 251.507812 141.550781 251.007812 141.34375 C 250.882812 141.300781 250.757812 141.257812 250.632812 141.175781 C 248.089844 140.300781 245.253906 140.925781 243.339844 141.632812 C 240.085938 142.800781 236.796875 145.261719 234.335938 148.304688 L 234.128906 148.59375 L 233.792969 148.679688 C 230.667969 149.429688 227.460938 149.179688 224.375 148.96875 C 221.417969 148.761719 218.667969 148.554688 215.957031 149.09375 C 211.875 149.929688 208.121094 152.59375 205.414062 156.554688 C 204.578125 157.761719 203.246094 158.554688 201.789062 158.722656 C 200.996094 158.804688 200.246094 158.722656 199.578125 158.636719 C 195.871094 158.136719 192.035156 157.636719 188.453125 156.136719 C 188.117188 156.011719 187.535156 155.761719 187.117188 155.179688 C 186.324219 154.011719 186.992188 152.511719 188.035156 151.71875 C 188.242188 151.554688 188.492188 151.386719 188.703125 151.261719 C 189.078125 151.011719 189.453125 150.804688 189.617188 150.554688 C 189.867188 150.136719 189.785156 149.429688 189.617188 148.761719 C 188.867188 145.21875 187.699219 141.757812 186.160156 138.507812 L 186.117188 138.425781 C 185.824219 137.84375 185.535156 137.175781 185.449219 136.382812 C 185.410156 135.882812 185.449219 135.382812 185.449219 134.964844 C 185.492188 134.507812 185.535156 134.132812 185.449219 133.800781 C 185.324219 133.382812 184.910156 132.964844 184.535156 132.589844 L 182.285156 130.296875 C 181.699219 129.714844 180.78125 128.757812 180.742188 127.421875 C 180.742188 127.214844 180.742188 127.007812 180.78125 126.839844 C 180.78125 126.714844 180.824219 126.546875 180.824219 126.464844 C 180.78125 126.339844 180.574219 126.089844 180.449219 125.964844 L 173.863281 119.171875 C 173.53125 118.839844 173.199219 118.421875 172.863281 118.046875 C 172.03125 117.046875 171.074219 115.960938 170.15625 115.503906 C 168.65625 114.796875 167.03125 114.503906 165.488281 114.296875 C 164.363281 114.128906 162.988281 113.960938 161.652344 114.046875 C 159.320312 114.171875 156.859375 114.921875 154.277344 116.335938 C 151.984375 117.628906 149.816406 119.253906 147.652344 120.964844 C 146.648438 121.753906 145.816406 122.464844 145.398438 123.339844 C 145.191406 123.796875 145.066406 124.296875 144.941406 124.839844 L 143.816406 129.507812 C 143.566406 130.632812 143.316406 131.632812 143.234375 132.675781 C 143.109375 134.132812 143.316406 135.632812 143.816406 137.050781 C 144.984375 140.21875 147.609375 144.050781 151.441406 145.425781 C 153.320312 146.09375 154.820312 147.34375 156.234375 148.511719 C 157.152344 149.304688 158.070312 150.011719 159.027344 150.59375 C 159.238281 150.71875 159.445312 150.84375 159.652344 150.929688 C 160.152344 151.179688 160.652344 151.46875 161.113281 151.84375 C 162.238281 152.679688 162.988281 153.886719 163.613281 154.804688 C 164.695312 156.472656 165.65625 158.011719 166.195312 159.847656 C 166.820312 162.015625 166.65625 164.222656 165.695312 165.890625 C 165.195312 166.722656 164.488281 167.433594 163.902344 168.015625 L 158.402344 173.433594 C 157.652344 174.183594 156.527344 174.558594 155.570312 174.433594 C 147.816406 173.183594 139.480469 176.601562 134.8125 182.894531 C 133.855469 184.1875 132.980469 185.6875 132.023438 187.644531 L 131.9375 187.8125 C 130.648438 190.394531 129.3125 193.019531 129.394531 195.730469 L 129.394531 196.3125 L 128.894531 196.648438 C 126.855469 197.9375 125.0625 199.105469 123.476562 200.566406 C 121.726562 202.191406 120.519531 203.941406 119.9375 205.730469 C 119.8125 206.066406 119.726562 206.441406 119.601562 206.773438 C 119.226562 207.941406 118.894531 209.148438 118.269531 210.273438 L 117.183594 212.359375 L 116.351562 210.148438 C 115.976562 209.109375 115.601562 208.191406 115.101562 207.398438 C 114.808594 206.941406 114.476562 206.523438 114.101562 206.066406 C 113.933594 205.855469 113.726562 205.648438 113.558594 205.398438 C 112.894531 204.523438 112.269531 203.605469 111.601562 202.523438 C 111.265625 201.980469 110.933594 201.441406 110.558594 200.941406 C 109.640625 199.5625 108.640625 198.105469 108.140625 196.355469 C 107.226562 193.269531 106.765625 190.105469 106.808594 186.894531 C 106.851562 185.394531 106.976562 183.601562 107.808594 182.019531 C 108.933594 179.894531 110.976562 178.726562 112.894531 177.601562 C 114.519531 176.683594 116.058594 175.765625 116.976562 174.433594 C 117.144531 174.183594 117.308594 173.890625 117.476562 173.601562 C 117.683594 173.226562 117.933594 172.851562 118.226562 172.476562 C 118.9375 171.515625 119.894531 170.808594 120.8125 170.140625 C 121.101562 169.933594 121.394531 169.683594 121.6875 169.472656 C 121.8125 169.390625 121.976562 169.222656 122.0625 169.097656 C 122.1875 168.890625 122.019531 168.472656 121.726562 168.058594 C 121.601562 167.890625 121.519531 167.765625 121.394531 167.640625 C 120.976562 167.140625 120.519531 166.558594 120.3125 165.808594 C 120.269531 165.640625 120.226562 165.515625 120.226562 165.347656 C 120.1875 165.222656 120.1875 165.054688 120.144531 164.972656 C 120.101562 164.929688 120.019531 164.847656 119.769531 164.679688 C 118.894531 164.140625 117.851562 163.765625 116.808594 163.429688 C 115.894531 163.097656 114.894531 162.765625 113.976562 162.265625 C 113.726562 162.140625 113.476562 162.015625 113.269531 161.847656 C 112.769531 161.554688 112.351562 161.304688 111.890625 161.140625 C 111.308594 160.929688 110.765625 160.972656 110.476562 161.222656 C 110.308594 161.390625 110.140625 161.640625 109.976562 161.929688 C 107.101562 166.808594 104.222656 171.683594 101.390625 176.558594 C 99.972656 178.933594 99.015625 181.769531 98.304688 183.976562 C 97.679688 185.976562 97.679688 188.0625 97.679688 190.3125 C 97.679688 191.480469 97.679688 192.6875 97.597656 193.855469 C 97.429688 195.730469 97.015625 197.648438 96.597656 199.480469 C 96.054688 201.898438 95.515625 204.191406 95.597656 206.441406 C 95.679688 209.734375 95.890625 213.066406 96.222656 216.316406 C 96.597656 220.195312 97.140625 224.320312 98.640625 228.027344 C 99.140625 229.238281 99.765625 230.488281 100.347656 231.65625 L 102.390625 235.699219 C 102.472656 235.863281 102.558594 236.074219 102.640625 236.238281 C 103.015625 236.988281 103.347656 237.699219 103.890625 238.074219 C 105.722656 239.28125 108.183594 239.78125 111.601562 239.699219 C 113.183594 239.65625 114.976562 239.488281 116.644531 238.824219 C 117.601562 238.40625 118.476562 237.824219 119.4375 237.238281 C 119.851562 236.949219 120.269531 236.699219 120.726562 236.40625 C 122.644531 235.238281 124.6875 234.363281 126.644531 233.53125 C 127.769531 233.03125 128.980469 232.53125 130.105469 231.988281 C 135.0625 229.570312 139.691406 225.863281 143.566406 221.195312 C 144.484375 220.070312 145.359375 218.902344 146.234375 217.777344 L 146.273438 217.734375 C 146.734375 217.152344 147.234375 216.527344 147.691406 215.941406 C 148.152344 215.359375 148.609375 214.777344 149.066406 214.234375 L 149.859375 213.191406 L 150.691406 214.191406 C 154.152344 218.359375 156.902344 223.109375 159.320312 227.320312 C 160.320312 229.027344 161.445312 230.988281 162.152344 233.070312 C 162.652344 234.488281 162.652344 235.949219 162.695312 237.324219 C 162.695312 238.03125 162.695312 238.699219 162.777344 239.363281 C 163.152344 242.78125 162.277344 246.117188 161.488281 249.324219 C 160.902344 251.574219 160.320312 253.867188 160.195312 256.117188 C 160.195312 256.410156 160.152344 256.703125 160.152344 256.992188 C 160.113281 257.785156 160.070312 258.621094 159.902344 259.496094 C 159.652344 260.660156 159.195312 261.703125 158.734375 262.703125 L 158.652344 262.910156 C 156.902344 266.664062 155.652344 269.664062 154.527344 273.121094 Z M 154.527344 273.121094 " fill-opacity="1" fill-rule="nonzero"/></g><g fill="#ffffff" fill-opacity="1"><g transform="translate(190.396202, 314.846247)"><g><path d="M 11.484375 -12.765625 L 4.296875 -12.203125 L 4.5625 -8.78125 L 11.1875 -9.296875 L 11.421875 -6.359375 L 4.796875 -5.84375 L 5.21875 -0.40625 L 1.484375 -0.109375 L 0.328125 -14.84375 L 11.25 -15.703125 Z M 11.484375 -12.765625 "/></g></g></g><g fill="#ffffff" fill-opacity="1"><g transform="translate(205.219723, 313.444405)"><g><path d="M 5.15625 -0.890625 L 1.46875 -0.25 L -1.0625 -14.8125 L 2.625 -15.453125 Z M 5.15625 -0.890625 "/></g></g></g><g fill="#ffffff" fill-opacity="1"><g transform="translate(213.963275, 311.97277)"><g><path d="M 9.234375 -14.71875 L 4.9375 -13.546875 L 8.03125 -2.1875 L 4.40625 -1.203125 L 1.3125 -12.5625 L -2.953125 -11.390625 L -3.75 -14.328125 L 8.4375 -17.65625 Z M 9.234375 -14.71875 "/></g></g></g><g fill="#ffffff" fill-opacity="1"><g transform="translate(228.807429, 307.885915)"><g><path d="M 13.921875 -5.90625 L 10.875 -4.625 L 1.046875 -10.34375 L 4.609375 -1.953125 L 1.359375 -0.578125 L -4.421875 -14.1875 L -1.359375 -15.484375 L 8.484375 -9.75 L 4.921875 -18.15625 L 8.140625 -19.515625 Z M 13.921875 -5.90625 "/></g></g></g><g fill="#ffffff" fill-opacity="1"><g transform="translate(246.305306, 300.166752)"><g><path d="M 5.078125 -16.875 L -1.625 -12.828125 L -0.109375 -10.3125 L 5.9375 -13.96875 L 7.46875 -11.4375 L 1.421875 -7.78125 L 2.953125 -5.234375 L 9.84375 -9.390625 L 11.375 -6.859375 L 1.265625 -0.765625 L -6.375 -13.421875 L 3.546875 -19.40625 Z M 5.078125 -16.875 "/></g></g></g><g fill="#ffffff" fill-opacity="1"><g transform="translate(260.474853, 291.406372)"><g><path d="M -3.71875 -16.15625 C -1.976562 -17.539062 -0.113281 -18.320312 1.875 -18.5 L 2.609375 -15.328125 C 1.722656 -15.191406 0.84375 -14.960938 -0.03125 -14.640625 C -0.914062 -14.316406 -1.59375 -13.96875 -2.0625 -13.59375 C -2.914062 -12.914062 -3.117188 -12.296875 -2.671875 -11.734375 C -2.378906 -11.367188 -1.929688 -11.242188 -1.328125 -11.359375 C -0.734375 -11.472656 -0.078125 -11.6875 0.640625 -12 C 1.367188 -12.320312 2.125 -12.601562 2.90625 -12.84375 C 3.6875 -13.09375 4.488281 -13.128906 5.3125 -12.953125 C 6.132812 -12.785156 6.851562 -12.316406 7.46875 -11.546875 C 8.351562 -10.429688 8.609375 -9.21875 8.234375 -7.90625 C 7.859375 -6.601562 7 -5.414062 5.65625 -4.34375 C 4.695312 -3.570312 3.617188 -2.976562 2.421875 -2.5625 C 1.222656 -2.144531 0.046875 -1.945312 -1.109375 -1.96875 L -1.78125 -5.140625 C -0.789062 -5.097656 0.226562 -5.226562 1.28125 -5.53125 C 2.34375 -5.84375 3.175781 -6.242188 3.78125 -6.734375 C 4.257812 -7.109375 4.5625 -7.484375 4.6875 -7.859375 C 4.820312 -8.242188 4.757812 -8.609375 4.5 -8.953125 C 4.238281 -9.265625 3.867188 -9.410156 3.390625 -9.390625 C 2.921875 -9.367188 2.414062 -9.226562 1.875 -8.96875 C 1.34375 -8.707031 0.738281 -8.457031 0.0625 -8.21875 C -0.601562 -7.976562 -1.242188 -7.773438 -1.859375 -7.609375 C -2.472656 -7.453125 -3.113281 -7.484375 -3.78125 -7.703125 C -4.457031 -7.929688 -5.046875 -8.363281 -5.546875 -9 C -6.390625 -10.0625 -6.640625 -11.242188 -6.296875 -12.546875 C -5.960938 -13.847656 -5.101562 -15.050781 -3.71875 -16.15625 Z M -3.71875 -16.15625 "/></g></g></g><g fill="#ffffff" fill-opacity="1"><g transform="translate(272.906034, 281.325931)"><g><path d="M -5.703125 -15.5625 C -4.160156 -17.144531 -2.414062 -18.15625 -0.46875 -18.59375 L 0.65625 -15.546875 C -0.195312 -15.304688 -1.039062 -14.96875 -1.875 -14.53125 C -2.707031 -14.09375 -3.332031 -13.660156 -3.75 -13.234375 C -4.507812 -12.453125 -4.632812 -11.8125 -4.125 -11.3125 C -3.789062 -10.976562 -3.332031 -10.90625 -2.75 -11.09375 C -2.175781 -11.28125 -1.546875 -11.578125 -0.859375 -11.984375 C -0.179688 -12.390625 0.523438 -12.765625 1.265625 -13.109375 C 2.003906 -13.453125 2.789062 -13.59375 3.625 -13.53125 C 4.46875 -13.46875 5.242188 -13.085938 5.953125 -12.390625 C 6.960938 -11.398438 7.367188 -10.226562 7.171875 -8.875 C 6.972656 -7.53125 6.269531 -6.238281 5.0625 -5 C 4.207031 -4.125 3.207031 -3.40625 2.0625 -2.84375 C 0.925781 -2.28125 -0.207031 -1.9375 -1.34375 -1.8125 L -2.421875 -4.890625 C -1.421875 -4.972656 -0.421875 -5.234375 0.578125 -5.671875 C 1.578125 -6.109375 2.351562 -6.609375 2.90625 -7.171875 C 3.320312 -7.597656 3.570312 -8.003906 3.65625 -8.390625 C 3.75 -8.785156 3.640625 -9.132812 3.328125 -9.4375 C 3.035156 -9.71875 2.65625 -9.816406 2.1875 -9.734375 C 1.726562 -9.648438 1.242188 -9.445312 0.734375 -9.125 C 0.234375 -8.8125 -0.328125 -8.488281 -0.953125 -8.15625 C -1.585938 -7.820312 -2.203125 -7.539062 -2.796875 -7.3125 C -3.390625 -7.09375 -4.03125 -7.050781 -4.71875 -7.1875 C -5.40625 -7.320312 -6.039062 -7.671875 -6.625 -8.234375 C -7.59375 -9.179688 -7.988281 -10.320312 -7.8125 -11.65625 C -7.644531 -12.988281 -6.941406 -14.289062 -5.703125 -15.5625 Z M -5.703125 -15.5625 "/></g></g></g><g fill="#ffffff" fill-opacity="1"><g transform="translate(283.658434, 269.886166)"><g/></g></g><g fill="#ffffff" fill-opacity="1"><g transform="translate(288.197572, 264.501236)"><g><path d="M -11.453125 -9.46875 L -7.875 -14.8125 C -6.820312 -16.375 -5.632812 -17.34375 -4.3125 -17.71875 C -3 -18.09375 -1.65625 -17.820312 -0.28125 -16.90625 C 1.15625 -15.9375 1.984375 -14.75 2.203125 -13.34375 C 2.421875 -11.9375 2.003906 -10.453125 0.953125 -8.890625 L -0.53125 -6.65625 L 2.921875 -4.34375 L 0.828125 -1.234375 Z M -6.90625 -10.9375 L -3 -8.3125 L -1.609375 -10.390625 C -1.148438 -11.085938 -0.960938 -11.734375 -1.046875 -12.328125 C -1.140625 -12.921875 -1.503906 -13.4375 -2.140625 -13.875 C -2.773438 -14.289062 -3.378906 -14.425781 -3.953125 -14.28125 C -4.535156 -14.132812 -5.054688 -13.710938 -5.515625 -13.015625 Z M -6.90625 -10.9375 "/></g></g></g><g fill="#ffffff" fill-opacity="1"><g transform="translate(297.326784, 250.48659)"><g><path d="M -0.4375 -6.09375 L 2.40625 -11.703125 L 5.203125 -10.28125 L 0.671875 -1.328125 L -12.515625 -8 L -10.828125 -11.34375 Z M -0.4375 -6.09375 "/></g></g></g><g fill="#ffffff" fill-opacity="1"><g transform="translate(303.760443, 237.748885)"><g><path d="M 1.1875 -11.5625 L -0.953125 -5.46875 L 1.25 -3.546875 L -0.03125 0.109375 L -11.84375 -10.84375 L -10.5625 -14.484375 L 5.4375 -15.4375 L 4.109375 -11.65625 Z M -1.875 -11.484375 L -7.734375 -11.3125 L -3.296875 -7.453125 Z M -1.875 -11.484375 "/></g></g></g><g fill="#ffffff" fill-opacity="1"><g transform="translate(309.85894, 219.897439)"><g><path d="M 2.84375 -14.859375 L 2.21875 -11.609375 L -8.015625 -6.625 L 0.9375 -4.90625 L 0.28125 -1.453125 L -14.234375 -4.234375 L -13.609375 -7.5 L -3.375 -12.484375 L -12.328125 -14.203125 L -11.671875 -17.640625 Z M 2.84375 -14.859375 "/></g></g></g><g fill="#ffffff" fill-opacity="1"><g transform="translate(313.274017, 200.990056)"><g><path d="M 0.5625 -15.109375 L 0.4375 -11.796875 L -8.921875 -5.34375 L 0.1875 -5 L 0.0625 -1.484375 L -14.703125 -2.046875 L -14.578125 -5.359375 L -5.21875 -11.828125 L -14.328125 -12.171875 L -14.203125 -15.671875 Z M 0.5625 -15.109375 "/></g></g></g><g fill="#ffffff" fill-opacity="1"><g transform="translate(313.732512, 181.870685)"><g><path d="M -13.125 -11.765625 L -12.3125 -3.984375 L -9.390625 -4.28125 L -10.109375 -11.3125 L -7.171875 -11.625 L -6.453125 -4.59375 L -3.484375 -4.890625 L -4.3125 -12.890625 L -1.375 -13.203125 L -0.15625 -1.46875 L -14.859375 0.0625 L -16.0625 -11.453125 Z M -13.125 -11.765625 "/></g></g></g><g fill="#ffffff" fill-opacity="1"><g transform="translate(311.87282, 165.254326)"><g><path d="M -2.46875 -10.09375 L -5.984375 -6.984375 L -5.953125 -6.875 L -5.265625 -4.09375 L -1.234375 -5.078125 L -0.359375 -1.4375 L -14.71875 2.0625 L -16.28125 -4.359375 C -16.75 -6.265625 -16.675781 -7.835938 -16.0625 -9.078125 C -15.445312 -10.328125 -14.335938 -11.148438 -12.734375 -11.546875 C -10.515625 -12.085938 -8.765625 -11.597656 -7.484375 -10.078125 L -3.484375 -14.234375 Z M -8.15625 -3.390625 L -8.84375 -6.171875 C -9.03125 -6.960938 -9.375 -7.523438 -9.875 -7.859375 C -10.382812 -8.203125 -11.015625 -8.285156 -11.765625 -8.109375 C -12.503906 -7.921875 -13.007812 -7.5625 -13.28125 -7.03125 C -13.550781 -6.5 -13.59375 -5.835938 -13.40625 -5.046875 L -12.71875 -2.265625 Z M -8.15625 -3.390625 "/></g></g></g><g fill="#ffffff" fill-opacity="1"><g transform="translate(81.905338, 159.074136)"><g><path d="M -5.015625 -20.96875 L -2.96875 -26.40625 L 6.015625 -23.015625 C 6.429688 -21.429688 6.578125 -19.742188 6.453125 -17.953125 C 6.328125 -16.160156 5.957031 -14.457031 5.34375 -12.84375 C 4.488281 -10.570312 3.238281 -8.707031 1.59375 -7.25 C -0.0507812 -5.800781 -1.925781 -4.878906 -4.03125 -4.484375 C -6.144531 -4.097656 -8.285156 -4.316406 -10.453125 -5.140625 C -12.628906 -5.960938 -14.378906 -7.210938 -15.703125 -8.890625 C -17.023438 -10.578125 -17.820312 -12.515625 -18.09375 -14.703125 C -18.363281 -16.898438 -18.0625 -19.160156 -17.1875 -21.484375 C -16.414062 -23.515625 -15.382812 -25.207031 -14.09375 -26.5625 C -12.8125 -27.914062 -11.320312 -28.882812 -9.625 -29.46875 L -7.578125 -24.234375 C -9.734375 -23.367188 -11.195312 -21.914062 -11.96875 -19.875 C -12.675781 -18.007812 -12.679688 -16.296875 -11.984375 -14.734375 C -11.285156 -13.179688 -9.992188 -12.050781 -8.109375 -11.34375 C -6.910156 -10.882812 -5.742188 -10.734375 -4.609375 -10.890625 C -3.484375 -11.054688 -2.476562 -11.503906 -1.59375 -12.234375 C -0.71875 -12.972656 -0.0546875 -13.941406 0.390625 -15.140625 C 0.835938 -16.316406 1.019531 -17.515625 0.9375 -18.734375 Z M -5.015625 -20.96875 "/></g></g></g><g fill="#ffffff" fill-opacity="1"><g transform="translate(90.970092, 135.390758)"><g><path d="M 1.171875 -16.875 L 8.109375 -12.296875 L 4.5 -6.84375 L -2.515625 -11.46875 L -19.71875 -12.203125 L -15.90625 -17.984375 L -5.203125 -17.515625 L -9.859375 -27.171875 L -6.359375 -32.484375 Z M 1.171875 -16.875 "/></g></g></g><g fill="#ffffff" fill-opacity="1"><g transform="translate(102.953282, 116.157348)"><g><path d="M 17.15625 -15.6875 L 8.8125 -24.71875 L 11.15625 -13.3125 L 9.015625 -11.34375 L -1.875 -14.484375 L 6.1875 -5.65625 L 1.703125 -1.5625 L -13.9375 -18.671875 L -9.9375 -22.3125 L 5.078125 -17.9375 L 1.9375 -33.171875 L 5.921875 -36.828125 L 21.609375 -19.765625 Z M 17.15625 -15.6875 "/></g></g></g><g fill="#ffffff" fill-opacity="1"><g transform="translate(125.701755, 95.222481)"><g><path d="M 20.859375 -10.25 L 15.390625 -21.265625 L 14.453125 -9.640625 L 11.84375 -8.359375 L 2.25 -14.421875 L 7.515625 -3.6875 L 2.078125 -1.015625 L -8.15625 -21.828125 L -3.3125 -24.21875 L 9.90625 -15.8125 L 11.140625 -31.3125 L 15.984375 -33.703125 L 26.28125 -12.921875 Z M 20.859375 -10.25 "/></g></g></g><g fill="#ffffff" fill-opacity="1"><g transform="translate(153.921943, 81.932685)"><g><path d="M 19.40625 -9.359375 L 20.46875 -4.40625 L 2.265625 -0.484375 L -2.625 -23.15625 L 15.15625 -26.984375 L 16.234375 -22.03125 L 4.796875 -19.578125 L 5.609375 -15.75 L 15.6875 -17.921875 L 16.71875 -13.140625 L 6.640625 -10.96875 L 7.546875 -6.8125 Z M 19.40625 -9.359375 "/></g></g></g><g fill="#ffffff" fill-opacity="1"><g transform="translate(175.605006, 77.129186)"><g><path d="M 12.46875 -6.125 L 8.890625 -6.140625 L 8.875 0.015625 L 2.3125 0 L 2.375 -23.1875 L 12.984375 -23.15625 C 15.078125 -23.144531 16.894531 -22.789062 18.4375 -22.09375 C 19.976562 -21.394531 21.164062 -20.394531 22 -19.09375 C 22.84375 -17.800781 23.257812 -16.285156 23.25 -14.546875 C 23.25 -12.867188 22.851562 -11.40625 22.0625 -10.15625 C 21.28125 -8.914062 20.160156 -7.941406 18.703125 -7.234375 L 23.6875 0.0625 L 16.65625 0.046875 Z M 16.625 -14.5625 C 16.632812 -15.644531 16.296875 -16.484375 15.609375 -17.078125 C 14.929688 -17.679688 13.914062 -17.984375 12.5625 -17.984375 L 8.921875 -18 L 8.90625 -11.21875 L 12.546875 -11.203125 C 13.898438 -11.203125 14.914062 -11.488281 15.59375 -12.0625 C 16.28125 -12.644531 16.625 -13.476562 16.625 -14.5625 Z M 16.625 -14.5625 "/></g></g></g><g clip-path="url(#451659b7f7)"><path fill="#a6a6a6" d="M 177.621094 299.792969 L 179.140625 301.699219 L 181.339844 300.644531 L 181.882812 303.019531 L 184.324219 303.019531 L 183.78125 305.398438 L 185.980469 306.460938 L 184.457031 308.367188 L 185.980469 310.273438 L 183.78125 311.332031 L 184.324219 313.710938 L 181.882812 313.710938 L 181.339844 316.085938 L 179.140625 315.03125 L 177.621094 316.9375 L 176.101562 315.03125 L 173.902344 316.085938 L 173.359375 313.710938 L 170.917969 313.710938 L 171.460938 311.332031 L 169.261719 310.273438 L 170.785156 308.367188 L 169.261719 306.460938 L 171.460938 305.398438 L 170.917969 303.019531 L 173.359375 303.019531 L 173.902344 300.644531 L 176.101562 301.699219 Z M 177.621094 299.792969 " fill-opacity="1" fill-rule="nonzero"/></g><g clip-path="url(#067ab6463f)"><path fill="#a6a6a6" d="M 65.453125 178.925781 L 66.976562 180.832031 L 69.171875 179.773438 L 69.714844 182.152344 L 72.15625 182.152344 L 71.613281 184.53125 L 73.8125 185.589844 L 72.289062 187.496094 L 73.8125 189.402344 L 71.613281 190.460938 L 72.15625 192.84375 L 69.714844 192.84375 L 69.171875 195.21875 L 66.976562 194.164062 L 65.453125 196.070312 L 63.933594 194.164062 L 61.738281 195.21875 L 61.191406 192.84375 L 58.753906 192.84375 L 59.296875 190.460938 L 57.097656 189.402344 L 58.621094 187.496094 L 57.097656 185.589844 L 59.296875 184.53125 L 58.753906 182.152344 L 61.191406 182.152344 L 61.738281 179.773438 L 63.933594 180.832031 Z M 65.453125 178.925781 " fill-opacity="1" fill-rule="nonzero"/></g><g fill="#ffffff" fill-opacity="1"><g transform="translate(67.395469, 229.438449)"><g><path d="M 15.84375 7.703125 L 12.921875 0.4375 L 10.203125 1.546875 L 12.84375 8.09375 L 10.109375 9.1875 L 7.46875 2.640625 L 4.6875 3.75 L 7.6875 11.21875 L 4.953125 12.328125 L 0.546875 1.375 L 14.265625 -4.140625 L 18.59375 6.609375 Z M 15.84375 7.703125 "/></g></g></g><g fill="#ffffff" fill-opacity="1"><g transform="translate(73.757697, 244.787142)"><g><path d="M 16.546875 -1.078125 C 17.628906 0.859375 18.101562 2.820312 17.96875 4.8125 L 14.71875 5.015625 C 14.726562 4.128906 14.640625 3.226562 14.453125 2.3125 C 14.273438 1.394531 14.035156 0.671875 13.734375 0.140625 C 13.203125 -0.804688 12.625 -1.109375 12 -0.765625 C 11.59375 -0.535156 11.398438 -0.117188 11.421875 0.484375 C 11.441406 1.097656 11.550781 1.785156 11.75 2.546875 C 11.945312 3.316406 12.101562 4.109375 12.21875 4.921875 C 12.34375 5.734375 12.253906 6.53125 11.953125 7.3125 C 11.648438 8.09375 11.066406 8.726562 10.203125 9.21875 C 8.960938 9.90625 7.722656 9.960938 6.484375 9.390625 C 5.253906 8.816406 4.21875 7.78125 3.375 6.28125 C 2.769531 5.207031 2.359375 4.039062 2.140625 2.78125 C 1.929688 1.53125 1.925781 0.34375 2.125 -0.78125 L 5.375 -0.9375 C 5.164062 0.0390625 5.128906 1.070312 5.265625 2.15625 C 5.398438 3.25 5.660156 4.132812 6.046875 4.8125 C 6.335938 5.34375 6.660156 5.703125 7.015625 5.890625 C 7.367188 6.078125 7.734375 6.066406 8.109375 5.859375 C 8.460938 5.660156 8.664062 5.320312 8.71875 4.84375 C 8.769531 4.375 8.710938 3.851562 8.546875 3.28125 C 8.390625 2.71875 8.238281 2.085938 8.09375 1.390625 C 7.957031 0.691406 7.863281 0.0234375 7.8125 -0.609375 C 7.757812 -1.242188 7.894531 -1.875 8.21875 -2.5 C 8.550781 -3.125 9.070312 -3.632812 9.78125 -4.03125 C 10.957031 -4.6875 12.160156 -4.742188 13.390625 -4.203125 C 14.628906 -3.660156 15.679688 -2.617188 16.546875 -1.078125 Z M 16.546875 -1.078125 "/></g></g></g><g fill="#ffffff" fill-opacity="1"><g transform="translate(81.699713, 258.604491)"><g><path d="M 17.046875 3.328125 L 14.40625 -0.265625 L 4.9375 6.703125 L 2.703125 3.671875 L 12.171875 -3.296875 L 9.546875 -6.859375 L 12.015625 -8.671875 L 19.515625 1.515625 Z M 17.046875 3.328125 "/></g></g></g><g fill="#ffffff" fill-opacity="1"><g transform="translate(90.770668, 270.488951)"><g/></g></g><g fill="#ffffff" fill-opacity="1"><g transform="translate(95.228153, 275.491573)"><g><path d="M 7.4375 -5.484375 C 7.90625 -5.484375 8.320312 -5.296875 8.6875 -4.921875 C 9.050781 -4.546875 9.226562 -4.125 9.21875 -3.65625 C 9.21875 -3.195312 9.03125 -2.785156 8.65625 -2.421875 C 8.28125 -2.054688 7.859375 -1.875 7.390625 -1.875 C 6.929688 -1.875 6.519531 -2.0625 6.15625 -2.4375 C 5.789062 -2.8125 5.609375 -3.234375 5.609375 -3.703125 C 5.617188 -4.171875 5.8125 -4.585938 6.1875 -4.953125 C 6.5625 -5.316406 6.976562 -5.492188 7.4375 -5.484375 Z M 2.953125 -1.09375 C 3.421875 -1.082031 3.835938 -0.890625 4.203125 -0.515625 C 4.566406 -0.140625 4.742188 0.273438 4.734375 0.734375 C 4.734375 1.191406 4.546875 1.601562 4.171875 1.96875 C 3.804688 2.332031 3.390625 2.515625 2.921875 2.515625 C 2.453125 2.515625 2.035156 2.328125 1.671875 1.953125 C 1.304688 1.578125 1.128906 1.15625 1.140625 0.6875 C 1.148438 0.21875 1.335938 -0.195312 1.703125 -0.5625 C 2.078125 -0.925781 2.492188 -1.101562 2.953125 -1.09375 Z M 2.953125 -1.09375 "/></g></g></g><g fill="#ffffff" fill-opacity="1"><g transform="translate(100.069021, 280.36523)"><g/></g></g><g fill="#ffffff" fill-opacity="1"><g transform="translate(105.13791, 285.123719)"><g><path d="M 14.25 -7.890625 C 15.414062 -6.984375 16.15625 -5.960938 16.46875 -4.828125 C 16.789062 -3.691406 16.601562 -2.664062 15.90625 -1.75 C 15.050781 -0.65625 13.304688 0.0703125 10.671875 0.4375 L 6.359375 1.125 L 11.296875 4.9375 L 9.46875 7.296875 L 0.703125 0.546875 L 2.1875 -1.375 L 9.796875 -2.59375 C 11.128906 -2.789062 12.015625 -3.171875 12.453125 -3.734375 C 12.710938 -4.078125 12.800781 -4.429688 12.71875 -4.796875 C 12.632812 -5.160156 12.382812 -5.503906 11.96875 -5.828125 C 11 -6.578125 9.546875 -6.898438 7.609375 -6.796875 L 8.15625 -9.796875 C 10.601562 -9.765625 12.632812 -9.128906 14.25 -7.890625 Z M 14.25 -7.890625 "/></g></g></g><g fill="#ffffff" fill-opacity="1"><g transform="translate(117.10379, 294.246626)"><g><path d="M 13.953125 -9.125 C 15.753906 -8.0625 16.816406 -6.679688 17.140625 -4.984375 C 17.472656 -3.296875 17.03125 -1.414062 15.8125 0.65625 C 14.582031 2.75 13.148438 4.066406 11.515625 4.609375 C 9.878906 5.160156 8.160156 4.90625 6.359375 3.84375 C 4.535156 2.78125 3.457031 1.40625 3.125 -0.28125 C 2.800781 -1.976562 3.253906 -3.875 4.484375 -5.96875 C 5.703125 -8.039062 7.128906 -9.347656 8.765625 -9.890625 C 10.398438 -10.441406 12.128906 -10.1875 13.953125 -9.125 Z M 12.5625 -6.75 C 11.726562 -7.226562 10.945312 -7.253906 10.21875 -6.828125 C 9.488281 -6.410156 8.695312 -5.46875 7.84375 -4 C 6.988281 -2.539062 6.550781 -1.382812 6.53125 -0.53125 C 6.507812 0.320312 6.914062 0.988281 7.75 1.46875 C 8.550781 1.9375 9.328125 1.953125 10.078125 1.515625 C 10.835938 1.085938 11.640625 0.15625 12.484375 -1.28125 C 13.328125 -2.726562 13.75 -3.882812 13.75 -4.75 C 13.757812 -5.613281 13.363281 -6.28125 12.5625 -6.75 Z M 12.5625 -6.75 "/></g></g></g><g fill="#ffffff" fill-opacity="1"><g transform="translate(132.070903, 302.750615)"><g><path d="M 11.796875 -11.234375 C 13.160156 -10.648438 14.132812 -9.847656 14.71875 -8.828125 C 15.3125 -7.816406 15.382812 -6.773438 14.9375 -5.703125 C 14.394531 -4.429688 12.898438 -3.289062 10.453125 -2.28125 L 6.4375 -0.515625 L 12.171875 1.921875 L 11 4.671875 L 0.8125 0.34375 L 1.765625 -1.890625 L 8.828125 -4.96875 C 10.066406 -5.507812 10.820312 -6.101562 11.09375 -6.75 C 11.269531 -7.144531 11.269531 -7.507812 11.09375 -7.84375 C 10.925781 -8.175781 10.601562 -8.445312 10.125 -8.65625 C 8.988281 -9.132812 7.492188 -9.082031 5.640625 -8.5 L 5.421875 -11.53125 C 7.804688 -12.125 9.929688 -12.023438 11.796875 -11.234375 Z M 11.796875 -11.234375 "/></g></g></g><g fill="#ffffff" fill-opacity="1"><g transform="translate(145.880532, 308.452276)"><g><path d="M 8.96875 -6.5 L 9.609375 -6.21875 C 10.628906 -5.726562 11.363281 -5.050781 11.8125 -4.1875 C 12.257812 -3.320312 12.320312 -2.359375 12 -1.296875 C 11.601562 0.0664062 10.78125 1.03125 9.53125 1.59375 C 8.28125 2.164062 6.835938 2.207031 5.203125 1.71875 C 4.242188 1.4375 3.328125 1 2.453125 0.40625 C 1.578125 -0.1875 0.894531 -0.847656 0.40625 -1.578125 L 2.6875 -3.875 C 3.414062 -2.414062 4.425781 -1.492188 5.71875 -1.109375 C 6.4375 -0.898438 7.023438 -0.898438 7.484375 -1.109375 C 7.953125 -1.328125 8.273438 -1.726562 8.453125 -2.3125 C 8.796875 -3.5 8.234375 -4.304688 6.765625 -4.734375 L 4.5 -5.421875 L 5.078125 -7.34375 L 9.203125 -9.6875 L 4.046875 -11.203125 L 4.859375 -13.953125 L 14.21875 -11.1875 L 13.609375 -9.140625 Z M 8.96875 -6.5 "/></g></g></g><g fill="#ffffff" fill-opacity="1"><g transform="translate(159.171955, 312.150027)"><g/></g></g></svg>