<svg width="46" height="22" viewBox="0 0 46 22" fill="none" xmlns="http://www.w3.org/2000/svg">
<path d="M13.8 1H8.2C7.88174 1 7.57652 1.12643 7.35147 1.35147C7.12643 1.57652 7 1.88174 7 2.2V19.8C7 19.9576 7.03104 20.1136 7.09134 20.2592C7.15165 20.4048 7.24004 20.5371 7.35147 20.6485C7.4629 20.76 7.59519 20.8484 7.74078 20.9087C7.88637 20.969 8.04241 21 8.2 21H13.8C13.9576 21 14.1136 20.969 14.2592 20.9087C14.4048 20.8484 14.5371 20.76 14.6485 20.6485C14.76 20.5371 14.8483 20.4048 14.9087 20.2592C14.969 20.1136 15 19.9576 15 19.8V2.2C15 1.88174 14.8736 1.57652 14.6485 1.35147C14.4235 1.12643 14.1183 1 13.8 1ZM37.8 1H32.2C31.8817 1 31.5765 1.12643 31.3515 1.35147C31.1264 1.57652 31 1.88174 31 2.2V19.8C31 19.9576 31.031 20.1136 31.0913 20.2592C31.1516 20.4048 31.24 20.5371 31.3515 20.6485C31.4629 20.76 31.5952 20.8484 31.7408 20.9087C31.8864 20.969 32.0424 21 32.2 21H37.8C37.9576 21 38.1136 20.969 38.2592 20.9087C38.4048 20.8484 38.5371 20.76 38.6485 20.6485C38.76 20.5371 38.8484 20.4048 38.9087 20.2592C38.969 20.1136 39 19.9576 39 19.8V2.2C39 1.88174 38.8736 1.57652 38.6485 1.35147C38.4235 1.12643 38.1183 1 37.8 1Z" stroke="white" stroke-width="1.5" stroke-linecap="round" stroke-linejoin="round"/>
<path d="M15 11H31M1 15.8V6.2C1 5.88174 1.12643 5.57651 1.35147 5.35147C1.57652 5.12643 1.88174 5 2.2 5H5.8C6.11826 5 6.42348 5.12643 6.64853 5.35147C6.87357 5.57651 7 5.88174 7 6.2V15.8C7 16.1183 6.87357 16.4235 6.64853 16.6485C6.42348 16.8736 6.11826 17 5.8 17H2.2C1.88174 17 1.57652 16.8736 1.35147 16.6485C1.12643 16.4235 1 16.1183 1 15.8ZM45 15.8V6.2C45 5.88174 44.8736 5.57651 44.6485 5.35147C44.4235 5.12643 44.1183 5 43.8 5H40.2C39.8817 5 39.5765 5.12643 39.3515 5.35147C39.1264 5.57651 39 5.88174 39 6.2V15.8C39 16.1183 39.1264 16.4235 39.3515 16.6485C39.5765 16.8736 39.8817 17 40.2 17H43.8C44.1183 17 44.4235 16.8736 44.6485 16.6485C44.8736 16.4235 45 16.1183 45 15.8Z" stroke="white" stroke-width="1.5" stroke-linecap="round" stroke-linejoin="round"/>
</svg>
