<svg width="84" height="84" viewBox="0 0 84 84" fill="none" xmlns="http://www.w3.org/2000/svg">
<path fill-rule="evenodd" clip-rule="evenodd" d="M41.6667 47.9168C46.0869 47.9168 50.3262 46.1609 53.4518 43.0353C56.5774 39.9097 58.3333 35.6704 58.3333 31.2502C58.3333 26.8299 56.5774 22.5907 53.4518 19.465C50.3262 16.3394 46.0869 14.5835 41.6667 14.5835C37.2464 14.5835 33.0072 16.3394 29.8816 19.465C26.7559 22.5907 25 26.8299 25 31.2502C25 35.6704 26.7559 39.9097 29.8816 43.0353C33.0072 46.1609 37.2464 47.9168 41.6667 47.9168ZM41.6667 43.7502C43.3082 43.7502 44.9336 43.4268 46.4502 42.7987C47.9668 42.1705 49.3448 41.2497 50.5055 40.089C51.6662 38.9283 52.587 37.5503 53.2152 36.0337C53.8433 34.5171 54.1667 32.8917 54.1667 31.2502C54.1667 29.6086 53.8433 27.9832 53.2152 26.4666C52.587 24.95 51.6662 23.5721 50.5055 22.4113C49.3448 21.2506 47.9668 20.3299 46.4502 19.7017C44.9336 19.0735 43.3082 18.7502 41.6667 18.7502C38.3515 18.7502 35.172 20.0671 32.8278 22.4113C30.4836 24.7555 29.1667 27.935 29.1667 31.2502C29.1667 34.5654 30.4836 37.7448 32.8278 40.089C35.172 42.4332 38.3515 43.7502 41.6667 43.7502Z" fill="black"/>
<path fill-rule="evenodd" clip-rule="evenodd" d="M83.3333 41.6667C83.3333 64.6792 64.6792 83.3333 41.6667 83.3333C18.6542 83.3333 0 64.6792 0 41.6667C0 18.6542 18.6542 0 41.6667 0C64.6792 0 83.3333 18.6542 83.3333 41.6667ZM61.7292 73.3542C55.7312 77.1616 48.7711 79.1781 41.6667 79.1667C34.3927 79.1779 27.2739 77.0635 21.1854 73.0833C20.6854 72.4583 20.1771 71.8125 19.6646 71.1458C19.0691 70.3648 18.7477 69.4092 18.75 68.4271C18.75 66.1833 20.3625 64.3021 22.5187 63.9875C36.7792 61.9042 46.5979 62.0833 60.8771 64.0604C61.9112 64.2103 62.8561 64.7293 63.5373 65.5216C64.2186 66.3139 64.5901 67.326 64.5833 68.3708C64.5833 69.3708 64.2396 70.3417 63.6187 71.1C62.9792 71.8792 62.3479 72.6312 61.7292 73.3542ZM68.7187 67.6375C68.3854 63.7375 65.425 60.4833 61.4479 59.9333C46.8312 57.9104 36.6146 57.7167 21.9167 59.8646C17.9167 60.4479 14.9687 63.7312 14.6187 67.6417C7.90068 60.6647 4.15343 51.3522 4.16667 41.6667C4.16667 20.9562 20.9562 4.16667 41.6667 4.16667C62.3771 4.16667 79.1667 20.9562 79.1667 41.6667C79.1799 51.3502 75.4343 60.6609 68.7187 67.6375Z" fill="black"/>
</svg>
