<svg width="40" height="40" viewBox="0 0 40 40" fill="none" xmlns="http://www.w3.org/2000/svg">
<path d="M32.5 6.25H7.5C5.42893 6.25 3.75 7.92893 3.75 10V32.5C3.75 34.5711 5.42893 36.25 7.5 36.25H32.5C34.5711 36.25 36.25 34.5711 36.25 32.5V10C36.25 7.92893 34.5711 6.25 32.5 6.25Z" stroke="black" stroke-width="2.5" stroke-linejoin="round"/>
<path d="M23.125 20C24.1605 20 25 19.1605 25 18.125C25 17.0895 24.1605 16.25 23.125 16.25C22.0895 16.25 21.25 17.0895 21.25 18.125C21.25 19.1605 22.0895 20 23.125 20Z" fill="black"/>
<path d="M29.375 20C30.4105 20 31.25 19.1605 31.25 18.125C31.25 17.0895 30.4105 16.25 29.375 16.25C28.3395 16.25 27.5 17.0895 27.5 18.125C27.5 19.1605 28.3395 20 29.375 20Z" fill="black"/>
<path d="M23.125 26.25C24.1605 26.25 25 25.4105 25 24.375C25 23.3395 24.1605 22.5 23.125 22.5C22.0895 22.5 21.25 23.3395 21.25 24.375C21.25 25.4105 22.0895 26.25 23.125 26.25Z" fill="black"/>
<path d="M29.375 26.25C30.4105 26.25 31.25 25.4105 31.25 24.375C31.25 23.3395 30.4105 22.5 29.375 22.5C28.3395 22.5 27.5 23.3395 27.5 24.375C27.5 25.4105 28.3395 26.25 29.375 26.25Z" fill="black"/>
<path d="M10.625 26.25C11.6605 26.25 12.5 25.4105 12.5 24.375C12.5 23.3395 11.6605 22.5 10.625 22.5C9.58947 22.5 8.75 23.3395 8.75 24.375C8.75 25.4105 9.58947 26.25 10.625 26.25Z" fill="black"/>
<path d="M16.875 26.25C17.9105 26.25 18.75 25.4105 18.75 24.375C18.75 23.3395 17.9105 22.5 16.875 22.5C15.8395 22.5 15 23.3395 15 24.375C15 25.4105 15.8395 26.25 16.875 26.25Z" fill="black"/>
<path d="M10.625 32.5C11.6605 32.5 12.5 31.6605 12.5 30.625C12.5 29.5895 11.6605 28.75 10.625 28.75C9.58947 28.75 8.75 29.5895 8.75 30.625C8.75 31.6605 9.58947 32.5 10.625 32.5Z" fill="black"/>
<path d="M16.875 32.5C17.9105 32.5 18.75 31.6605 18.75 30.625C18.75 29.5895 17.9105 28.75 16.875 28.75C15.8395 28.75 15 29.5895 15 30.625C15 31.6605 15.8395 32.5 16.875 32.5Z" fill="black"/>
<path d="M23.125 32.5C24.1605 32.5 25 31.6605 25 30.625C25 29.5895 24.1605 28.75 23.125 28.75C22.0895 28.75 21.25 29.5895 21.25 30.625C21.25 31.6605 22.0895 32.5 23.125 32.5Z" fill="black"/>
<path d="M10 3.75V6.25M30 3.75V6.25" stroke="black" stroke-width="2.5" stroke-linecap="round" stroke-linejoin="round"/>
<path d="M36.25 12.5H3.75" stroke="black" stroke-width="2.5" stroke-linejoin="round"/>
</svg>
